<mxfile host="app.diagrams.net" modified="2024-04-12T18:14:36.592Z" agent="Mozilla/5.0 (Windows NT 10.0; Win64; x64) AppleWebKit/537.36 (KHTML, like Gecko) Chrome/123.0.0.0 Safari/537.36" etag="vJ4FwsH4fnBK30AvAY71" version="24.2.5" type="google">
  <diagram name="Page-1" id="PV9Iaq7z-RnVemVK8dkU">
    <mxGraphModel dx="1050" dy="1699" grid="1" gridSize="10" guides="1" tooltips="1" connect="1" arrows="1" fold="1" page="1" pageScale="1" pageWidth="827" pageHeight="1169" math="0" shadow="0">
      <root>
        <mxCell id="0" />
        <mxCell id="1" parent="0" />
        <mxCell id="cNCZULLKiiRFuvmud4mY-2" value="USERS" style="html=1;dashed=0;whiteSpace=wrap;" vertex="1" parent="1">
          <mxGeometry x="40" y="-870" width="120" height="90" as="geometry" />
        </mxCell>
        <mxCell id="cNCZULLKiiRFuvmud4mY-5" value="PERSONAL FINANCE MANAGEMENT SYSTEM" style="rounded=0;whiteSpace=wrap;html=1;" vertex="1" parent="1">
          <mxGeometry x="490" y="-870" width="320" height="90" as="geometry" />
        </mxCell>
        <mxCell id="cNCZULLKiiRFuvmud4mY-8" value="" style="endArrow=classic;html=1;rounded=0;entryX=-0.012;entryY=0.122;entryDx=0;entryDy=0;entryPerimeter=0;" edge="1" parent="1" target="cNCZULLKiiRFuvmud4mY-5">
          <mxGeometry width="50" height="50" relative="1" as="geometry">
            <mxPoint x="160" y="-859" as="sourcePoint" />
            <mxPoint x="440" y="-870" as="targetPoint" />
          </mxGeometry>
        </mxCell>
        <mxCell id="cNCZULLKiiRFuvmud4mY-9" value="" style="endArrow=classic;html=1;rounded=0;entryX=1;entryY=0.75;entryDx=0;entryDy=0;exitX=0;exitY=0.75;exitDx=0;exitDy=0;" edge="1" parent="1" source="cNCZULLKiiRFuvmud4mY-5" target="cNCZULLKiiRFuvmud4mY-2">
          <mxGeometry width="50" height="50" relative="1" as="geometry">
            <mxPoint x="390" y="-820" as="sourcePoint" />
            <mxPoint x="440" y="-870" as="targetPoint" />
          </mxGeometry>
        </mxCell>
        <mxCell id="cNCZULLKiiRFuvmud4mY-10" value="USER CREDENTIALS/&lt;div&gt;TRANSACTION DETAILS/&lt;/div&gt;&lt;div&gt;BUDGET PARAMETERS&lt;/div&gt;" style="ellipse;whiteSpace=wrap;html=1;" vertex="1" parent="1">
          <mxGeometry x="220" y="-960" width="220" height="100" as="geometry" />
        </mxCell>
        <mxCell id="cNCZULLKiiRFuvmud4mY-11" value="REPORT GENERATION" style="ellipse;whiteSpace=wrap;html=1;" vertex="1" parent="1">
          <mxGeometry x="260" y="-800" width="130" height="90" as="geometry" />
        </mxCell>
      </root>
    </mxGraphModel>
  </diagram>
</mxfile>
